<svg xmlns="http://www.w3.org/2000/svg" width="203.205" height="117.759" viewBox="0 0 203.205 117.759">
  <g id="Group_762" data-name="Group 762" transform="translate(-655.536 -327.337)">
    <g id="Group_760" data-name="Group 760" transform="translate(9466 -8131)">
      <g id="Group_761" data-name="Group 761">
        <rect id="Rectangle_360" data-name="Rectangle 360" width="75" height="24.074" rx="12" transform="translate(-8800.843 8539.457) rotate(-30)" fill="#f4f4f4"/>
        <rect id="Rectangle_361" data-name="Rectangle 361" width="75" height="24.074" rx="12" transform="translate(-8700.195 8498.216) rotate(-30)" fill="#f4f4f4"/>
        <rect id="Rectangle_355" data-name="Rectangle 355" width="65" height="10" rx="5" transform="translate(-8733.521 8495.335) rotate(-30)" fill="#f4f4f4"/>
        <rect id="Rectangle_357" data-name="Rectangle 357" width="75" height="10" rx="5" transform="translate(-8786.894 8516.12) rotate(-30)" fill="#f4f4f4"/>
        <rect id="Rectangle_358" data-name="Rectangle 358" width="39" height="10" rx="5" transform="translate(-8769.102 8560.437) rotate(-30)" fill="#f4f4f4"/>
        <rect id="Rectangle_356" data-name="Rectangle 356" width="65" height="10" rx="5" transform="translate(-8691.328 8530.336) rotate(-30)" fill="#f4f4f4"/>
        <circle id="Ellipse_49" data-name="Ellipse 49" cx="5" cy="5" r="5" transform="translate(-8629.841 8494.836) rotate(-30)" fill="#f4f4f4"/>
        <circle id="Ellipse_50" data-name="Ellipse 50" cx="5" cy="5" r="5" transform="translate(-8781.226 8567.436) rotate(-30)" fill="#f4f4f4"/>
        <g id="Ellipse_51" data-name="Ellipse 51" transform="translate(-8765.986 8470.502) rotate(3)" fill="#f4f4f4" stroke="#e84242" stroke-width="2">
          <circle cx="5" cy="5" r="5" stroke="none"/>
          <circle cx="5" cy="5" r="4" fill="none"/>
        </g>
        <g id="Ellipse_52" data-name="Ellipse 52" transform="translate(-8624.683 8464.402) rotate(3)" fill="#f4f4f4" stroke="#e84242" stroke-width="2">
          <circle cx="5" cy="5" r="5" stroke="none"/>
          <circle cx="5" cy="5" r="4" fill="none"/>
        </g>
        <g id="Ellipse_53" data-name="Ellipse 53" transform="translate(-8654.401 8531.599) rotate(3)" fill="#f4f4f4" stroke="#e84242" stroke-width="1.5">
          <circle cx="3" cy="3" r="3" stroke="none"/>
          <circle cx="3" cy="3" r="2.25" fill="none"/>
        </g>
        <g id="Ellipse_56" data-name="Ellipse 56" transform="translate(-8797.88 8517.486) rotate(-177)" fill="#f4f4f4" stroke="gold" stroke-width="1.5">
          <ellipse cx="3" cy="3" rx="3" ry="3" stroke="none"/>
          <ellipse cx="3" cy="3" rx="2.25" ry="2.25" fill="none"/>
        </g>
        <g id="Ellipse_55" data-name="Ellipse 55" transform="translate(-8637.739 8538.48) rotate(3)" fill="#f4f4f4" stroke="gold" stroke-width="1">
          <circle cx="2" cy="2" r="2" stroke="none"/>
          <circle cx="2" cy="2" r="1.5" fill="none"/>
        </g>
        <g id="Ellipse_58" data-name="Ellipse 58" transform="translate(-8609.256 8503.65) rotate(3)" fill="#f4f4f4" stroke="#e84242" stroke-width="0.5">
          <circle cx="1" cy="1" r="1" stroke="none"/>
          <circle cx="1" cy="1" r="0.75" fill="none"/>
        </g>
        <g id="Ellipse_59" data-name="Ellipse 59" transform="translate(-8810.359 8567.224) rotate(3)" fill="#f4f4f4" stroke="gold" stroke-width="0.5">
          <circle cx="1" cy="1" r="1" stroke="none"/>
          <circle cx="1" cy="1" r="0.75" fill="none"/>
        </g>
        <g id="Ellipse_60" data-name="Ellipse 60" transform="translate(-8761 8463)" fill="#fff" stroke="#e84242" stroke-width="10">
          <circle cx="50" cy="50" r="50" stroke="none"/>
          <circle cx="50" cy="50" r="45" fill="none"/>
        </g>
      </g>
    </g>
    <g id="vuesax_outline_tick-circle" data-name="vuesax/outline/tick-circle" transform="translate(708.58 335.58)">
      <g id="tick-circle" transform="translate(0 0)">
        <path id="Vector" d="M0,0H92.839V92.839H0Z" fill="none" opacity="0"/>
        <g id="vuesax_outline_warning-2" data-name="vuesax/outline/warning-2" transform="translate(-180.424 -708.243)">
          <g id="warning-2" transform="translate(172 700)">
            <path id="Vector-2" data-name="Vector" d="M0,0H112.76V112.76H0Z" fill="none" opacity="0"/>
          </g>
        </g>
        <g id="Group_766" data-name="Group 766" transform="translate(-9.486 -10.563)">
          <path id="Vector-3" data-name="Vector" d="M3.57,32.134A3.6,3.6,0,0,1,0,28.564V3.57A3.6,3.6,0,0,1,3.57,0a3.6,3.6,0,0,1,3.57,3.57V28.564A3.6,3.6,0,0,1,3.57,32.134Z" transform="translate(52.872 32.888)" fill="#e84242"/>
          <path id="Vector-4" data-name="Vector" d="M4.761,9.462a4.712,4.712,0,0,1-3.38-1.38A6.955,6.955,0,0,1,.333,6.51,4.693,4.693,0,0,1,0,4.7a5.006,5.006,0,0,1,1.38-3.38,4.985,4.985,0,0,1,6.76,0A5.006,5.006,0,0,1,9.521,4.7,4.739,4.739,0,0,1,9.14,6.51a5.5,5.5,0,0,1-1,1.571A4.712,4.712,0,0,1,4.761,9.462Z" transform="translate(51.682 72.222)" fill="#e84242"/>
        </g>
      </g>
    </g>
  </g>
</svg>
