<svg xmlns="http://www.w3.org/2000/svg" width="203.205" height="115.38" viewBox="0 0 203.205 115.38">
  <g id="Group_762" data-name="Group 762" transform="translate(-655.536 -329.716)">
    <g id="Group_760" data-name="Group 760" transform="translate(9466 -8131)">
      <g id="Group_761" data-name="Group 761">
        <rect id="Rectangle_360" data-name="Rectangle 360" width="75" height="24.074" rx="12" transform="translate(-8800.843 8539.457) rotate(-30)" fill="#f4f4f4"/>
        <rect id="Rectangle_361" data-name="Rectangle 361" width="75" height="24.074" rx="12" transform="translate(-8700.195 8498.216) rotate(-30)" fill="#f4f4f4"/>
        <rect id="Rectangle_355" data-name="Rectangle 355" width="65" height="10" rx="5" transform="translate(-8733.521 8495.335) rotate(-30)" fill="#f4f4f4"/>
        <rect id="Rectangle_357" data-name="Rectangle 357" width="75" height="10" rx="5" transform="translate(-8786.894 8516.12) rotate(-30)" fill="#f4f4f4"/>
        <rect id="Rectangle_358" data-name="Rectangle 358" width="39" height="10" rx="5" transform="translate(-8769.102 8560.437) rotate(-30)" fill="#f4f4f4"/>
        <rect id="Rectangle_356" data-name="Rectangle 356" width="65" height="10" rx="5" transform="translate(-8691.328 8530.336) rotate(-30)" fill="#f4f4f4"/>
        <circle id="Ellipse_49" data-name="Ellipse 49" cx="5" cy="5" r="5" transform="translate(-8629.841 8494.836) rotate(-30)" fill="#f4f4f4"/>
        <circle id="Ellipse_50" data-name="Ellipse 50" cx="5" cy="5" r="5" transform="translate(-8781.226 8567.436) rotate(-30)" fill="#f4f4f4"/>
        <g id="Ellipse_51" data-name="Ellipse 51" transform="translate(-8765.986 8470.502) rotate(3)" fill="#f4f4f4" stroke="#41b76b" stroke-width="2">
          <circle cx="5" cy="5" r="5" stroke="none"/>
          <circle cx="5" cy="5" r="4" fill="none"/>
        </g>
        <g id="Ellipse_52" data-name="Ellipse 52" transform="translate(-8624.683 8464.402) rotate(3)" fill="#f4f4f4" stroke="#41b76b" stroke-width="2">
          <circle cx="5" cy="5" r="5" stroke="none"/>
          <circle cx="5" cy="5" r="4" fill="none"/>
        </g>
        <g id="Ellipse_53" data-name="Ellipse 53" transform="translate(-8654.401 8531.599) rotate(3)" fill="#f4f4f4" stroke="#41b76b" stroke-width="1.5">
          <circle cx="3" cy="3" r="3" stroke="none"/>
          <circle cx="3" cy="3" r="2.25" fill="none"/>
        </g>
        <g id="Ellipse_56" data-name="Ellipse 56" transform="translate(-8797.88 8517.486) rotate(-177)" fill="#f4f4f4" stroke="gold" stroke-width="1.5">
          <ellipse cx="3" cy="3" rx="3" ry="3" stroke="none"/>
          <ellipse cx="3" cy="3" rx="2.25" ry="2.25" fill="none"/>
        </g>
        <g id="Ellipse_55" data-name="Ellipse 55" transform="translate(-8637.739 8538.48) rotate(3)" fill="#f4f4f4" stroke="gold" stroke-width="1">
          <circle cx="2" cy="2" r="2" stroke="none"/>
          <circle cx="2" cy="2" r="1.5" fill="none"/>
        </g>
        <g id="Ellipse_58" data-name="Ellipse 58" transform="translate(-8609.256 8503.65) rotate(3)" fill="#f4f4f4" stroke="#41b76b" stroke-width="0.5">
          <circle cx="1" cy="1" r="1" stroke="none"/>
          <circle cx="1" cy="1" r="0.75" fill="none"/>
        </g>
        <g id="Ellipse_59" data-name="Ellipse 59" transform="translate(-8810.359 8567.224) rotate(3)" fill="#f4f4f4" stroke="gold" stroke-width="0.5">
          <circle cx="1" cy="1" r="1" stroke="none"/>
          <circle cx="1" cy="1" r="0.75" fill="none"/>
        </g>
        <g id="Ellipse_60" data-name="Ellipse 60" transform="translate(-8761 8463)" fill="#fff" stroke="#41b76b" stroke-width="10">
          <circle cx="50" cy="50" r="50" stroke="none"/>
          <circle cx="50" cy="50" r="45" fill="none"/>
        </g>
      </g>
    </g>
    <g id="vuesax_outline_tick-circle" data-name="vuesax/outline/tick-circle" transform="translate(708.58 335.58)">
      <g id="tick-circle" transform="translate(0 0)">
        <path id="Vector" d="M15.34,30.734a3.213,3.213,0,0,1-2.273-.943L.933,17.656A3.214,3.214,0,1,1,5.478,13.11l9.862,9.862L37.38.933a3.214,3.214,0,1,1,4.545,4.545L17.613,29.79A3.213,3.213,0,0,1,15.34,30.734Z" transform="translate(24.991 31.038)" fill="#41b76b"/>
        <path id="Vector-2" data-name="Vector" d="M0,0H92.839V92.839H0Z" fill="none" opacity="0"/>
      </g>
    </g>
  </g>
</svg>
